<?xml version="1.0" encoding="UTF-8"?><svg id="_Слой_1" xmlns="http://www.w3.org/2000/svg" viewBox="0 0 30 30"><defs><style>.cls-1{fill:#fff;}.cls-2{fill:#1465c0;}</style></defs><circle class="cls-2" cx="15" cy="15" r="15"/><path class="cls-1" d="M13.91,11.13c0,.57-.11,1.1-.33,1.6-.22,.5-.51,.93-.88,1.3-.37,.37-.81,.66-1.32,.88-.51,.22-1.04,.33-1.61,.33s-1.1-.11-1.61-.33c-.51-.22-.95-.51-1.32-.88-.37-.37-.66-.8-.88-1.3-.22-.5-.33-1.03-.33-1.6s.11-1.12,.33-1.62c.22-.5,.51-.93,.88-1.3,.37-.37,.81-.66,1.32-.87,.51-.21,1.04-.32,1.61-.32s1.1,.11,1.61,.32c.51,.21,.95,.5,1.32,.87s.66,.8,.88,1.3,.33,1.04,.33,1.62Zm-2.43,0c0-.46-.17-.86-.5-1.2-.33-.33-.73-.5-1.2-.5s-.86,.17-1.2,.5c-.33,.33-.5,.73-.5,1.2s.17,.86,.5,1.19c.33,.33,.73,.49,1.2,.49s.86-.16,1.2-.49c.33-.33,.5-.72,.5-1.19Zm-.02,12.28l-1.93-.96L18.5,6.59l2.02,.98-9.06,15.84Zm12.89-4.59c0,.57-.11,1.1-.33,1.6-.22,.5-.51,.94-.88,1.31s-.81,.66-1.31,.88c-.51,.22-1.04,.33-1.61,.33s-1.1-.11-1.61-.33c-.51-.22-.94-.51-1.32-.88-.37-.37-.66-.8-.88-1.31-.22-.5-.33-1.03-.33-1.6s.11-1.1,.33-1.6,.51-.93,.88-1.3c.37-.37,.81-.66,1.32-.88s1.04-.33,1.61-.33,1.1,.11,1.61,.33,.94,.51,1.31,.88,.66,.8,.88,1.3,.33,1.03,.33,1.6Zm-2.43,0c0-.23-.05-.45-.14-.66-.09-.21-.22-.39-.37-.54s-.33-.27-.53-.36c-.2-.09-.42-.13-.65-.13-.47,0-.86,.17-1.2,.5s-.5,.73-.5,1.2,.17,.86,.5,1.19c.33,.33,.73,.49,1.2,.49,.23,0,.45-.04,.65-.13s.38-.21,.53-.36,.28-.33,.37-.53,.14-.42,.14-.65Z"/></svg>